<?xml version="1.0" standalone="no"?><!DOCTYPE svg PUBLIC "-//W3C//DTD SVG 1.1//EN" "http://www.w3.org/Graphics/SVG/1.1/DTD/svg11.dtd"><svg t="1611386958815" class="icon" viewBox="0 0 1024 1024" version="1.1" xmlns="http://www.w3.org/2000/svg" p-id="2512" xmlns:xlink="http://www.w3.org/1999/xlink" width="200" height="200"><defs><style type="text/css"></style></defs><path d="M650.091286 579.983402 650.091286 579.983402c89.228216-48.863071 150.838174-144.46473 150.838174-254.937759 0-159.3361-129.593361-291.053942-288.929461-291.053942S223.070539 163.585062 223.070539 322.921162c0 110.473029 61.609959 206.074689 150.838174 254.937759l0 0C216.697095 635.219917 106.224066 786.058091 106.224066 960.26556c0 16.995851 12.746888 29.742739 29.742739 29.742739 16.995851 0 29.742739-12.746888 29.742739-29.742739 0-191.20332 155.087137-348.414938 348.414938-348.414938s348.414938 155.087137 348.414938 348.414938c0 16.995851 12.746888 29.742739 29.742739 29.742739 16.995851 0 29.742739-12.746888 29.742739-29.742739C917.775934 786.058091 805.178423 635.219917 650.091286 579.983402zM280.431535 322.921162c0-127.46888 104.099585-231.568465 231.568465-231.568465S743.568465 195.452282 743.568465 322.921162c0 127.46888-104.099585 231.568465-231.568465 231.568465S280.431535 452.514523 280.431535 322.921162z" p-id="2513" fill="#1296db"></path></svg>